PathFileType	3	(X/Y/Z)	D:\minhoCalibration\240510\subject2_KPNP\preferred\preferred20.trc
DataRate	CameraRate	NumFrames	NumMarkers	Units	OrigDataRate	OrigDataStartFrame	OrigNumFrames
200.0	200.0	36	10	mm	200.0	449	176	
Frame#	Time	Left_Ankle_Outer1			Left_Ankle_Inner1			Left_Knee_Outer1			Left_Knee_Inner1			Left_Wrist1			Right_Wrist1			Right_Knee_Inner1			Right_Knee_Outer1			Right_Ankle_Inner1			Right_Ankle_Outer1			
		X1	Y1	Z1	X2	Y2	Z2	X3	Y3	Z3	X4	Y4	Z4	X5	Y5	Z5	X6	Y6	Z6	X7	Y7	Z7	X8	Y8	Z8	X9	Y9	Z9	X10	Y10	Z10	
449	2.235	-724.87036	83.491486	-670.84479	-743.29449	85.749191	-615.67773	-540.90967	503.01044	-636.39008	-623.3941	486.1286	-570.9126	-657.9375	916.34521	-765.1908	-992.69348	955.59253	-812.60785	-1059.6489	451.67236	-834.32324	-1119.4271	503.77029	-889.06018	-1027.4625	115.67001	-1060.6454	-1103.4661	145.04866	-1121.3634
450	2.24	-724.05316	83.910973	-670.30634	-742.79388	86.190727	-615.12097	-537.71655	502.46555	-632.08014	-621.84991	485.66791	-569.18292	-653.54034	916.60968	-763.55377	-989.38458	956.22949	-805.87604	-1053.9565	453.59357	-822.00604	-1123.3975	505.57034	-878.50287	-1027.6194	120.7262	-1056.0605	-1103.1725	151.18427	-1116.8798
451	2.245	-723.09485	84.392761	-670.13855	-741.6958	85.996132	-616.04706	-534.7713	502.57761	-628.15021	-619.84235	485.7366	-567.46381	-649.61041	917.00702	-761.78851	-985.85529	957.11584	-799.12268	-1056.4098	457.05811	-806.41791	-1128.2881	507.27094	-865.57904	-1028.0707	126.86636	-1050.6262	-1103.3892	158.23912	-1111.7356
452	2.25	-722.31677	84.883804	-670.13354	-741.18896	86.488205	-616.07758	-532.04095	503.01425	-625.03662	-617.37183	486.25894	-565.76831	-645.35022	917.6507	-760.60089	-982.04114	958.21893	-792.20618	-1058.3217	461.71716	-790.90784	-1131.6305	511.11829	-853.64551	-1029.4109	133.66032	-1044.4254	-1103.4224	166.59554	-1106.0422
453	2.255	-721.74689	84.963646	-670.00409	-740.99866	87.250328	-615.94427	-529.7851	503.51608	-622.95648	-614.26251	486.60184	-565.50061	-640.87982	918.84332	-758.50818	-977.84418	959.50848	-785.03381	-1060.6711	465.95715	-774.23004	-1136.3021	513.51129	-840.01294	-1031.1691	140.72401	-1037.8035	-1104.6343	174.72127	-1098.9121
454	2.26	-721.29773	85.236404	-671.01819	-740.8855	87.876083	-615.55963	-527.69135	503.77179	-622.05457	-611.40375	487.71445	-563.09265	-635.97662	920.46777	-756.91321	-973.44037	960.89423	-777.78534	-1065.0785	469.60059	-760.37592	-1139.1796	518.27917	-827.32239	-1032.8257	147.89377	-1030.0079	-1106.1719	183.66505	-1090.9836
455	2.265	-720.69617	85.09758	-671.64825	-740.10345	87.850082	-616.94196	-525.67725	503.67044	-622.22589	-607.6947	487.65219	-562.93677	-631.38507	922.35181	-755.82782	-968.77228	962.37134	-770.54279	-1068.5852	473.23969	-745.56824	-1142.3251	522.5174	-812.51917	-1035.6346	155.47038	-1021.6102	-1108.3347	193.00998	-1082.1498
456	2.27	-720.11725	84.680069	-671.67377	-740.31738	87.647408	-616.6604	-523.72278	503.0238	-623.07147	-603.96844	487.50842	-561.31122	-626.73969	924.12219	-755.27179	-964.11383	964.11487	-763.34448	-1071.8455	477.37183	-730.25879	-1145.0881	527.27478	-796.67828	-1038.5215	163.59027	-1012.636	-1110.5837	203.00902	-1072.3624
457	2.275	-719.68463	84.60994	-671.97522	-740.08051	87.56086	-617.2392	-521.57916	502.11316	-624.49689	-599.79077	486.4133	-560.78027	-621.50391	926.5921	-753.25909	-959.17242	965.83362	-755.94739	-1074.0752	481.91357	-713.58527	-1147.4971	531.48621	-778.3111	-1042.0062	172.27631	-1002.841	-1112.927	213.64961	-1062.0868
458	2.28	-719.2157	84.773193	-672.61029	-739.31158	87.368919	-618.70215	-519.5517	501.01028	-625.83649	-595.61914	485.38626	-560.69434	-616.67566	928.98438	-752.3822	-954.2489	967.71967	-748.59558	-1075.8982	486.33597	-697.09106	-1148.0668	537.90308	-763.58527	-1045.1907	181.3526	-992.84595	-1115.4604	224.81819	-1051.2472
459	2.285	-718.69562	84.766228	-672.91473	-739.3761	87.902992	-618.00977	-517.57001	499.76636	-627.35236	-591.85223	484.63821	-560.75116	-611.82452	931.1579	-751.55548	-949.12653	969.68756	-740.96466	-1076.4811	491.77048	-679.54919	-1147.8571	543.38141	-747.60852	-1048.2567	191.11336	-982.18579	-1118.0392	236.29924	-1039.7559
460	2.29	-718.35211	84.787727	-673.12964	-738.79456	87.752716	-619.11682	-515.74158	498.50519	-628.64185	-588.57648	483.9902	-561.17535	-606.94226	933.35895	-750.89484	-944.16333	972.09412	-733.42438	-1091.9314	492.48279	-656.81842	-1145.9673	549.84149	-719.59985	-1050.5815	201.22353	-971.24475	-1120.0643	248.34166	-1027.635
461	2.295	-718.15021	84.768303	-673.25427	-739.15546	88.390564	-618.06549	-513.94702	497.16632	-629.90405	-586.034	483.54034	-561.84363	-602.0379	935.77551	-750.12201	-939.04999	974.57977	-725.66541	-1075.3848	503.48889	-644.64392	-1148.2416	554.44019	-706.08899	-1051.7981	212.04382	-960.53418	-1121.9421	260.75598	-1015.0843
462	2.3	-718.01904	84.781471	-673.40479	-738.50806	88.048553	-619.31018	-512.05585	496.05841	-631.02594	-584.27551	483.09399	-562.86505	-597.51849	937.92072	-750.51331	-933.88245	977.37305	-717.85193	-1086.5448	500.11438	-634.61426	-1145.2905	562.83411	-691.09692	-1053.0745	223.46864	-949.21918	-1123.4183	273.85556	-1002.4246
463	2.305	-717.86255	84.687759	-673.55225	-738.20001	87.836655	-619.97186	-510.46426	494.95029	-632.1142	-583.20349	482.7648	-563.85748	-592.91742	940.19855	-750.72449	-928.63757	980.45306	-709.89142	-1070.2523	515.76141	-608.3194	-1142.2119	570.18542	-661.09082	-1054.1583	236.69031	-937.67346	-1124.9503	287.45166	-989.48895
464	2.31	-717.70203	84.639114	-673.77002	-738.57739	88.869278	-618.14709	-508.87894	494.05734	-633.35022	-582.22205	482.3222	-565.74506	-588.37543	942.5177	-751.35175	-923.15881	983.68561	-701.60175	-1069.4325	522.92249	-593.06226	-1140.5442	575.98273	-651.91455	-1053.451	250.07671	-927.20599	-1125.7222	302.12436	-976.29388
465	2.315	-717.43347	84.331497	-673.69409	-736.71863	86.90126	-622.92462	-507.51895	493.27219	-634.80792	-581.59283	481.95837	-567.51184	-584.10364	944.81537	-752.23291	-917.5329	987.24481	-693.19635	-1062.8159	529.52649	-573.78387	-1137.4326	581.92102	-629.95331	-1052.6594	264.89673	-916.0545	-1125.6835	317.28659	-962.97992
466	2.32	-717.23199	84.406342	-674.00549	-737.39209	88.792885	-620.2063	-506.22821	492.71924	-636.69409	-580.83051	481.70792	-569.58698	-579.97168	946.99554	-753.62537	-911.76184	991.24164	-684.6897	-1064.583	532.48938	-563.15082	-1133.339	588.97357	-609.66174	-1050.9955	280.49088	-904.10669	-1124.9124	332.92044	-949.50122
467	2.325	-717.24756	84.695396	-674.69635	-737.513	88.853508	-620.68805	-505.00006	492.4259	-639.1131	-579.76215	481.54944	-571.85449	-576.25616	949.56158	-755.0412	-905.69739	995.45587	-675.82507	-1061.047	537.21552	-545.07812	-1128.8383	596.63074	-589.44531	-1047.5732	296.5036	-892.82416	-1123.0747	349.42026	-935.83691
468	2.33	-716.9339	84.60125	-674.6568	-737.63324	89.871567	-619.65216	-504.73209	491.9162	-642.09961	-578.37238	481.52078	-574.22107	-571.73285	951.91687	-757.38721	-899.12439	999.83582	-667.13855	-1056.9198	542.25421	-526.34692	-1123.7292	604.37469	-568.66815	-1043.592	312.35226	-881.18494	-1120.5266	365.776	-921.24506
469	2.335	-716.93048	85.018631	-675.34424	-736.49646	90.026894	-621.12128	-504.32242	491.89325	-645.73077	-576.57721	481.63928	-576.80786	-568.15948	953.75824	-759.62872	-892.38916	1004.5226	-658.32257	-1052.5464	547.95966	-507.59863	-1118.0831	613.01215	-548.0863	-1039.6907	328.79315	-868.7691	-1117.3016	382.92557	-906.69061
470	2.34	-716.76709	85.313095	-675.6795	-736.21625	89.71962	-621.94769	-504.32782	491.96011	-649.80591	-574.63214	481.86316	-579.48419	-564.77765	955.57233	-762.22467	-885.22467	1009.1937	-649.4281	-1044.3665	554.58142	-489.10303	-1111.0327	621.09247	-525.25983	-1035.5122	345.25952	-855.86102	-1113.4932	400.18784	-891.61316
471	2.345	-716.61597	85.551147	-676.1463	-736.7251	91.413734	-620.17126	-505.13251	492.04584	-654.14471	-572.66492	482.186	-582.17413	-561.74274	957.31042	-765.05341	-877.95605	1014.0635	-640.68628	-1035.6305	561.81116	-470.62967	-1103.4669	629.53705	-504.47656	-1031.5851	362.0405	-842.48865	-1109.849	417.93237	-876.04572
472	2.35	-716.26636	85.700699	-676.08154	-735.76556	91.214775	-622.3222	-505.90585	492.53018	-658.73413	-570.86761	482.69324	-584.99408	-559.60205	958.59735	-768.16187	-870.30304	1019.1084	-632.26825	-1028.3153	576.73608	-426.14078	-1093.4852	640.9422	-475.70819	-1027.9286	378.92093	-828.63373	-1106.6257	436.01889	-859.91724
473	2.355	-716.19263	86.03019	-676.41638	-735.14642	91.704636	-622.99982	-506.74326	493.26892	-663.42444	-569.25146	483.27448	-587.89484	-556.87463	960.53302	-771.44635	-862.59576	1024.1311	-623.85193	-1015.9794	577.71552	-433.36298	-1084.8597	648.50647	-462.3407	-1023.876	396.10001	-814.48755	-1103.3518	453.87756	-842.77789
474	2.36	-716.30969	86.711357	-677.16724	-735.00732	92.430603	-623.026	-507.82312	493.94958	-667.96881	-567.90009	483.93033	-590.94354	-555.76685	961.81366	-774.53442	-854.54486	1029.3282	-615.77496	-1005.0588	599.99054	-379.15726	-1073.6063	658.26685	-442.01538	-1020.0605	414.14951	-799.79205	-1100.3794	472.49979	-825.43658
475	2.365	-716.28528	87.239288	-677.42871	-734.62317	93.073593	-623.29553	-508.93735	494.60986	-672.48212	-566.86426	484.64639	-593.92877	-554.53705	963.23828	-777.96558	-846.28046	1034.5674	-607.9743	-993.26758	594.57892	-396.13736	-1060.8059	670.63037	-413.15625	-1016.8088	431.7562	-784.64508	-1098.2938	490.90305	-806.53455
476	2.37	-716.04053	87.557869	-677.21625	-734.32513	93.835464	-623.31744	-509.85843	495.41443	-676.99023	-566.08667	485.39709	-596.98291	-553.63849	964.59711	-781.61774	-837.91168	1039.8538	-600.4342	-980.81073	603.76361	-377.60455	-1049.0186	679.53864	-396.71988	-1012.9016	450.28369	-769.19611	-1094.8165	509.49777	-788.28308
477	2.375	-716.33716	88.50016	-677.75256	-734.39355	95.403084	-622.034	-511.0191	496.01825	-681.2818	-565.44727	486.08487	-599.98749	-553.16864	965.78851	-785.46515	-829.38751	1045.1628	-593.32959	-967.63428	614.3595	-357.64911	-1035.9009	690.15936	-375.8446	-1009.5923	467.93933	-753.38177	-1092.2021	526.9848	-768.41571
478	2.38	-716.36005	89.212189	-677.74915	-733.83716	96.499611	-621.85785	-511.95169	496.76071	-685.31995	-564.88507	486.77927	-603.00073	-553.24713	966.83472	-789.29144	-820.75842	1050.4899	-586.55127	-953.72021	624.32764	-340.11118	-1021.2835	700.32251	-356.95636	-1006.1169	485.47021	-736.6532	-1087.7867	546.81036	-750.30035
479	2.385	-716.4411	89.990387	-677.75629	-733.06342	97.57354	-621.89392	-513.10632	497.23041	-689.22217	-564.23871	487.55518	-605.651	-553.70007	967.73444	-793.21075	-812.12122	1055.8853	-580.29126	-938.71356	634.00464	-322.51511	-1005.7286	711.23853	-337.51407	-1002.5247	503.76016	-719.97327	-1083.4814	565.87463	-730.6756
480	2.39	-716.53705	90.861259	-677.66504	-732.62311	98.636192	-621.66235	-513.91382	497.91135	-693.10297	-563.60492	488.35651	-608.28125	-554.55597	968.44647	-797.16736	-803.54828	1061.2181	-574.51636	-923.15796	645.00354	-304.73801	-990.50916	723.58008	-316.28711	-999.07452	521.6676	-702.60883	-1080.339	584.89258	-709.18518
481	2.395	-716.63666	91.751366	-677.55103	-731.53601	98.760582	-623.42529	-514.81903	498.49069	-696.81622	-562.89026	489.26706	-610.68945	-555.935	968.97186	-801.03333	-795.05328	1066.6351	-569.11694	-906.89191	656.27252	-287.15234	-973.26501	735.53973	-297.52664	-995.68304	540.01617	-684.91412	-1076.4155	603.66724	-688.29901
482	2.4	-716.78949	92.685593	-677.32178	-731.52863	100.0101	-622.56659	-515.09442	499.64325	-700.59399	-561.63544	490.19122	-612.73871	-557.75684	969.30878	-804.85388	-786.69568	1071.9885	-564.31281	-889.68805	667.75482	-269.83765	-955.89062	748.54675	-278.09625	-992.41559	557.68475	-666.62219	-1072.7651	622.60223	-665.8363
483	2.405	-716.80389	93.678726	-676.89886	-730.90222	101.14297	-622.05804	-516.56775	499.75397	-703.84039	-560.52808	491.40561	-615.617	-560.01288	969.43848	-808.5517	-778.48016	1077.2269	-560.02765	-872.35864	680.05554	-252.91318	-937.25775	761.2002	-260.24863	-989.88251	575.50092	-647.32404	-1067.215	641.91199	-645.19641
484	2.41	-716.92126	94.707466	-676.39087	-730.05347	102.85191	-620.62463	-517.12793	500.5256	-707.1333	-558.55353	492.2832	-617.30066	-562.40204	969.84961	-812.04517	-770.19684	1082.3855	-555.93109	-853.79419	692.66895	-236.92548	-918.88593	776.67706	-238.32065	-987.01349	592.80487	-627.83417	-1062.9789	660.69708	-622.44934
